<svg width="48" height="48" viewBox="0 0 48 48" fill="none" xmlns="http://www.w3.org/2000/svg">
<path d="M34 26.0002L26 44.0002C24.4087 44.0002 22.8826 43.3681 21.7574 42.2429C20.6321 41.1177 20 39.5915 20 38.0002V30.0002H8.68C8.10018 30.0068 7.52587 29.8872 6.99686 29.6498C6.46784 29.4124 5.99677 29.0628 5.61628 28.6252C5.2358 28.1876 4.95499 27.6726 4.79332 27.1157C4.63165 26.5589 4.59298 25.9735 4.68 25.4002L7.44 7.40023C7.58465 6.44642 8.06913 5.57702 8.80419 4.95222C9.53925 4.32742 10.4753 3.98933 11.44 4.00023H34M34 26.0002V4.00023M34 26.0002H39.34C40.4719 26.0203 41.5718 25.624 42.4308 24.8866C43.2899 24.1492 43.8483 23.1221 44 22.0002V8.00023C43.8483 6.87835 43.2899 5.85124 42.4308 5.11387C41.5718 4.3765 40.4719 3.98022 39.34 4.00023H34" stroke="#F59643" stroke-width="4" stroke-linecap="round" stroke-linejoin="round"/>
</svg>
