<svg width="28" height="29" viewBox="0 0 28 29" fill="none" xmlns="http://www.w3.org/2000/svg">
<g clip-path="url(#clip0_717_2312)">
<path d="M20.93 21.4298C18.9356 22.95 16.5073 23.7922 14 23.8332C5.83329 23.8332 1.16663 14.4998 1.16663 14.4998C2.61783 11.7954 4.63062 9.43255 7.06996 7.56984M11.55 5.4465C12.353 5.25853 13.1752 5.16457 14 5.1665C22.1666 5.1665 26.8333 14.4998 26.8333 14.4998C26.1251 15.8247 25.2805 17.072 24.3133 18.2215M16.4733 16.9732C16.1529 17.317 15.7665 17.5929 15.3371 17.7841C14.9078 17.9754 14.4443 18.0783 13.9744 18.0866C13.5045 18.0949 13.0376 18.0084 12.6018 17.8324C12.166 17.6564 11.7701 17.3944 11.4378 17.062C11.1054 16.7297 10.8434 16.3338 10.6674 15.898C10.4914 15.4621 10.4049 14.9953 10.4132 14.5254C10.4215 14.0555 10.5244 13.592 10.7156 13.1627C10.9069 12.7333 11.1828 12.3469 11.5266 12.0265M1.16663 1.6665L26.8333 27.3332" stroke="#F59643" stroke-width="4" stroke-linecap="round" stroke-linejoin="round"/>
</g>
<defs>
<clipPath id="clip0_717_2312">
<rect width="28" height="28" fill="white" transform="translate(0 0.5)"/>
</clipPath>
</defs>
</svg>
