<svg width="65" height="65" viewBox="0 0 65 65" fill="none" xmlns="http://www.w3.org/2000/svg">
<path d="M65 60.1372C65 62.8228 62.8228 65 60.1372 65H4.86284C2.17717 65 0 62.8228 0 60.1372V45.7868C0 43.479 2.39687 41.9207 4.62186 42.5332C4.89954 42.6097 5.17873 42.6825 5.45936 42.7516C6.45743 42.9975 7.19121 43.8723 7.19121 44.9002C7.19121 47.5859 9.36841 49.7631 12.0541 49.7631H14.2053C16.8909 49.7631 19.0681 47.5859 19.0681 44.9002C19.0681 43.8882 19.7928 43.0279 20.7767 42.7909C24.0359 42.0059 27.1021 40.7257 29.8915 39.0346C30.7408 38.5197 31.8396 38.6169 32.5419 39.3192C34.441 41.2183 37.5201 41.2183 39.4191 39.3192L40.9402 37.7982C42.8392 35.8991 42.8392 32.8201 40.9402 30.921C40.2539 30.2348 40.1619 29.1597 40.6711 28.3334C42.4183 25.4983 43.739 22.3723 44.5435 19.0448C44.7663 18.1236 45.5734 17.4472 46.5212 17.4472C49.2068 17.4472 51.384 15.27 51.384 12.5843V10.4331C51.384 7.74746 49.2068 5.57027 46.5212 5.57027C45.5893 5.57027 44.7966 4.90318 44.5823 3.9963C44.5435 3.83226 44.5035 3.6687 44.4623 3.50564C44.0265 1.78375 45.2589 0 47.035 0H60.1372C62.8228 0 65 2.17717 65 4.86284V60.1372Z" fill="#3B7080"/>
<path d="M26.5307 0C28.088 0 29.5868 0.727015 30.3356 2.09238C31.8685 4.88725 32.7403 8.09616 32.7403 11.5087C32.7403 22.3393 23.9603 31.1193 13.1297 31.1193C8.85683 31.1193 4.90332 29.7526 1.68206 27.4327C0.564895 26.6281 0 25.2892 0 23.9125V4.86284C0 2.17717 2.17717 0 4.86284 0H26.5307Z" fill="#3B7080"/>
</svg>
