<svg width="256" height="153" viewBox="0 0 256 153" fill="none" xmlns="http://www.w3.org/2000/svg">
<g filter="url(#filter0_d_1156_1886)">
<path d="M11 21C11 15.4772 15.4772 11 21 11H235C240.523 11 245 15.4772 245 21V55H11V21Z" fill="white"/>
<path d="M51 42V40C51 38.9391 50.5786 37.9217 49.8284 37.1716C49.0783 36.4214 48.0609 36 47 36H39C37.9391 36 36.9217 36.4214 36.1716 37.1716C35.4214 37.9217 35 38.9391 35 40V42M47 28C47 30.2091 45.2091 32 43 32C40.7909 32 39 30.2091 39 28C39 25.7909 40.7909 24 43 24C45.2091 24 47 25.7909 47 28Z" stroke="#F59643" stroke-width="2" stroke-linecap="round" stroke-linejoin="round"/>
<path d="M72.58 39.2C71.9133 39.2 71.24 39.0933 70.56 38.88C69.88 38.6667 69.26 38.34 68.7 37.9C68.14 37.4467 67.6867 36.88 67.34 36.2C67.0067 35.5067 66.84 34.6933 66.84 33.76V25.86C66.84 25.6067 66.9267 25.3933 67.1 25.22C67.2733 25.0333 67.4867 24.94 67.74 24.94C67.9933 24.94 68.2067 25.0333 68.38 25.22C68.5667 25.3933 68.66 25.6067 68.66 25.86V33.82C68.66 34.6467 68.8467 35.34 69.22 35.9C69.6067 36.4467 70.1 36.86 70.7 37.14C71.3 37.4067 71.9267 37.54 72.58 37.54C73.2333 37.54 73.86 37.4067 74.46 37.14C75.06 36.86 75.5467 36.4467 75.92 35.9C76.3067 35.34 76.5 34.6467 76.5 33.82V25.86C76.5 25.6067 76.5867 25.3933 76.76 25.22C76.9333 25.0333 77.1467 24.94 77.4 24.94C77.6533 24.94 77.8667 25.0333 78.04 25.22C78.2267 25.3933 78.32 25.6067 78.32 25.86V33.76C78.32 34.6933 78.1467 35.5067 77.8 36.2C77.4667 36.88 77.02 37.4467 76.46 37.9C75.9 38.34 75.28 38.6667 74.6 38.88C73.92 39.0933 73.2467 39.2 72.58 39.2ZM84.7238 39.2C83.9904 39.2 83.3238 39.12 82.7238 38.96C82.1371 38.8 81.5904 38.58 81.0838 38.3C80.8571 38.14 80.7438 37.92 80.7438 37.64C80.7438 37.44 80.8171 37.26 80.9638 37.1C81.1104 36.9267 81.2971 36.84 81.5238 36.84C81.6438 36.84 81.7638 36.8667 81.8838 36.92C82.2438 37.08 82.6371 37.22 83.0638 37.34C83.5038 37.46 84.0171 37.52 84.6038 37.52C85.3771 37.52 85.9371 37.4 86.2838 37.16C86.6438 36.9067 86.8238 36.5533 86.8238 36.1C86.8238 35.8067 86.6771 35.58 86.3838 35.42C86.1038 35.26 85.7304 35.1267 85.2638 35.02C84.8104 34.9 84.3304 34.78 83.8238 34.66C83.3171 34.5267 82.8304 34.3533 82.3638 34.14C81.9104 33.9133 81.5371 33.6133 81.2438 33.24C80.9638 32.8533 80.8238 32.36 80.8238 31.76C80.8238 30.8533 81.1504 30.1 81.8038 29.5C82.4571 28.9 83.4304 28.6 84.7238 28.6C85.2704 28.6 85.7838 28.6467 86.2638 28.74C86.7571 28.8333 87.2104 28.9533 87.6238 29.1C87.8104 29.1533 87.9504 29.26 88.0438 29.42C88.1504 29.5667 88.2038 29.7133 88.2038 29.86C88.2038 30.0733 88.1238 30.26 87.9638 30.42C87.8171 30.58 87.6304 30.66 87.4038 30.66C87.3504 30.66 87.3038 30.66 87.2638 30.66C87.2238 30.6467 87.1838 30.6333 87.1438 30.62C86.8238 30.5133 86.4704 30.4267 86.0838 30.36C85.7104 30.2933 85.3038 30.26 84.8638 30.26C84.1304 30.26 83.5638 30.3933 83.1638 30.66C82.7638 30.9267 82.5638 31.26 82.5638 31.66C82.5638 32.0067 82.7038 32.2733 82.9838 32.46C83.2771 32.6467 83.6504 32.8 84.1038 32.92C84.5704 33.0267 85.0571 33.14 85.5638 33.26C86.0838 33.38 86.5704 33.5533 87.0238 33.78C87.4904 33.9933 87.8638 34.2933 88.1438 34.68C88.4371 35.0667 88.5838 35.5867 88.5838 36.24C88.5838 37.0533 88.2571 37.7533 87.6038 38.34C86.9638 38.9133 86.0038 39.2 84.7238 39.2ZM95.5931 39.2C93.9665 39.2 92.6931 38.74 91.7731 37.82C90.8665 36.8867 90.4131 35.58 90.4131 33.9C90.4131 32.9933 90.5798 32.14 90.9131 31.34C91.2465 30.5267 91.7665 29.8667 92.4731 29.36C93.1798 28.8533 94.0865 28.6 95.1931 28.6C96.2198 28.6 97.0865 28.84 97.7931 29.32C98.4998 29.7867 99.0331 30.4 99.3931 31.16C99.7665 31.92 99.9531 32.7467 99.9531 33.64C99.9531 33.8933 99.8665 34.1067 99.6931 34.28C99.5331 34.4533 99.3131 34.54 99.0331 34.54H92.2531C92.3598 35.4333 92.6998 36.1533 93.2731 36.7C93.8465 37.2333 94.6731 37.5 95.7531 37.5C96.3531 37.5 96.8598 37.4467 97.2731 37.34C97.6865 37.22 98.0798 37.0667 98.4531 36.88C98.5598 36.8267 98.6798 36.8 98.8131 36.8C99.0265 36.8 99.2131 36.8733 99.3731 37.02C99.5331 37.1667 99.6131 37.3533 99.6131 37.58C99.6131 37.74 99.5598 37.8867 99.4531 38.02C99.3598 38.14 99.2398 38.24 99.0931 38.32C98.6531 38.5733 98.1731 38.7867 97.6531 38.96C97.1465 39.12 96.4598 39.2 95.5931 39.2ZM92.2531 33.06H98.1531C98.1131 32.3667 97.9331 31.8067 97.6131 31.38C97.3065 30.9533 96.9331 30.64 96.4931 30.44C96.0531 30.24 95.6198 30.14 95.1931 30.14C94.7665 30.14 94.3331 30.24 93.8931 30.44C93.4531 30.64 93.0798 30.9533 92.7731 31.38C92.4665 31.8067 92.2931 32.3667 92.2531 33.06ZM103.261 39.1C103.008 39.1 102.795 39.0133 102.621 38.84C102.448 38.6667 102.361 38.4533 102.361 38.2V29.62C102.361 29.3667 102.448 29.1533 102.621 28.98C102.795 28.7933 103.008 28.7 103.261 28.7C103.515 28.7 103.728 28.7933 103.901 28.98C104.088 29.1533 104.181 29.3667 104.181 29.62V30.48C104.541 30 104.981 29.5667 105.501 29.18C106.021 28.7933 106.628 28.6 107.321 28.6H107.421C107.675 28.6 107.881 28.6867 108.041 28.86C108.215 29.0333 108.301 29.2467 108.301 29.5C108.301 29.7533 108.215 29.96 108.041 30.12C107.868 30.28 107.648 30.36 107.381 30.36H107.281C106.628 30.36 106.035 30.5267 105.501 30.86C104.968 31.18 104.528 31.6 104.181 32.12V38.2C104.181 38.4533 104.088 38.6667 103.901 38.84C103.728 39.0133 103.515 39.1 103.261 39.1ZM116.473 39.1C116.219 39.1 116.006 39.0133 115.833 38.84C115.659 38.6667 115.573 38.4533 115.573 38.2V25.86C115.573 25.6067 115.659 25.3933 115.833 25.22C116.006 25.0333 116.219 24.94 116.473 24.94C116.726 24.94 116.939 25.0333 117.113 25.22C117.299 25.3933 117.393 25.6067 117.393 25.86V38.2C117.393 38.4533 117.299 38.6667 117.113 38.84C116.939 39.0133 116.726 39.1 116.473 39.1ZM121.621 39.1C121.367 39.1 121.154 39.0133 120.981 38.84C120.807 38.6667 120.721 38.4533 120.721 38.2V29.62C120.721 29.3533 120.807 29.1333 120.981 28.96C121.154 28.7867 121.367 28.7 121.621 28.7C121.874 28.7 122.087 28.7867 122.261 28.96C122.447 29.1333 122.541 29.3533 122.541 29.62V30.44C122.967 29.9733 123.467 29.5533 124.041 29.18C124.627 28.7933 125.367 28.6 126.261 28.6C127.021 28.6 127.667 28.78 128.201 29.14C128.734 29.4867 129.141 29.96 129.421 30.56C129.701 31.1467 129.841 31.8 129.841 32.52V38.2C129.841 38.4533 129.747 38.6667 129.561 38.84C129.387 39.0133 129.174 39.1 128.921 39.1C128.667 39.1 128.454 39.0133 128.281 38.84C128.107 38.6667 128.021 38.4533 128.021 38.2V32.72C128.021 31.96 127.847 31.3667 127.501 30.94C127.167 30.5 126.607 30.28 125.821 30.28C125.101 30.28 124.474 30.4733 123.941 30.86C123.407 31.2467 122.941 31.6933 122.541 32.2V38.2C122.541 38.4533 122.447 38.6667 122.261 38.84C122.087 39.0133 121.874 39.1 121.621 39.1ZM134.314 39.1C134.061 39.1 133.848 39.0133 133.674 38.84C133.501 38.6667 133.414 38.4533 133.414 38.2V30.36H132.234C132.021 30.36 131.834 30.2867 131.674 30.14C131.528 29.98 131.454 29.7933 131.454 29.58C131.454 29.3533 131.528 29.1667 131.674 29.02C131.834 28.8733 132.021 28.8 132.234 28.8H133.414V27.64C133.414 26.8 133.561 26.1267 133.854 25.62C134.161 25.1133 134.548 24.7533 135.014 24.54C135.481 24.3133 135.948 24.2 136.414 24.2C136.748 24.2 137.061 24.24 137.354 24.32C137.648 24.3867 137.914 24.48 138.154 24.6C138.274 24.6533 138.381 24.7467 138.474 24.88C138.568 25 138.614 25.14 138.614 25.3C138.614 25.4867 138.541 25.66 138.394 25.82C138.261 25.98 138.088 26.06 137.874 26.06C137.714 26.06 137.554 26.04 137.394 26C137.234 25.96 137.061 25.94 136.874 25.94C136.381 25.94 135.981 26.06 135.674 26.3C135.381 26.5267 135.234 26.9933 135.234 27.7V28.8H137.734C137.961 28.8 138.148 28.8733 138.294 29.02C138.441 29.1667 138.514 29.3533 138.514 29.58C138.514 29.7933 138.441 29.98 138.294 30.14C138.148 30.2867 137.961 30.36 137.734 30.36H135.234V38.2C135.234 38.4533 135.148 38.6667 134.974 38.84C134.801 39.0133 134.581 39.1 134.314 39.1ZM144.205 39.2C143.178 39.2 142.278 38.98 141.505 38.54C140.732 38.0867 140.132 37.4667 139.705 36.68C139.292 35.88 139.085 34.9533 139.085 33.9C139.085 32.8467 139.292 31.9267 139.705 31.14C140.132 30.34 140.732 29.72 141.505 29.28C142.278 28.8267 143.178 28.6 144.205 28.6C145.232 28.6 146.125 28.8267 146.885 29.28C147.658 29.72 148.258 30.34 148.685 31.14C149.112 31.9267 149.325 32.8467 149.325 33.9C149.325 34.9533 149.112 35.88 148.685 36.68C148.258 37.4667 147.658 38.0867 146.885 38.54C146.125 38.98 145.232 39.2 144.205 39.2ZM144.205 37.54C144.712 37.54 145.218 37.42 145.725 37.18C146.232 36.94 146.652 36.5533 146.985 36.02C147.332 35.4733 147.505 34.76 147.505 33.88C147.505 33 147.332 32.2933 146.985 31.76C146.652 31.2267 146.232 30.8467 145.725 30.62C145.218 30.38 144.712 30.26 144.205 30.26C143.698 30.26 143.185 30.38 142.665 30.62C142.158 30.8467 141.738 31.2267 141.405 31.76C141.072 32.2933 140.905 33 140.905 33.88C140.905 34.76 141.072 35.4733 141.405 36.02C141.738 36.5533 142.158 36.94 142.665 37.18C143.185 37.42 143.698 37.54 144.205 37.54ZM152.773 39.1C152.52 39.1 152.306 39.0133 152.133 38.84C151.96 38.6667 151.873 38.4533 151.873 38.2V29.62C151.873 29.3667 151.96 29.1533 152.133 28.98C152.306 28.7933 152.52 28.7 152.773 28.7C153.026 28.7 153.24 28.7933 153.413 28.98C153.6 29.1533 153.693 29.3667 153.693 29.62V30.48C154.053 30 154.493 29.5667 155.013 29.18C155.533 28.7933 156.14 28.6 156.833 28.6H156.933C157.186 28.6 157.393 28.6867 157.553 28.86C157.726 29.0333 157.813 29.2467 157.813 29.5C157.813 29.7533 157.726 29.96 157.553 30.12C157.38 30.28 157.16 30.36 156.893 30.36H156.793C156.14 30.36 155.546 30.5267 155.013 30.86C154.48 31.18 154.04 31.6 153.693 32.12V38.2C153.693 38.4533 153.6 38.6667 153.413 38.84C153.24 39.0133 153.026 39.1 152.773 39.1ZM160.429 39.1C160.176 39.1 159.963 39.0133 159.789 38.84C159.616 38.6667 159.529 38.4533 159.529 38.2V29.62C159.529 29.3667 159.616 29.1533 159.789 28.98C159.963 28.7933 160.176 28.7 160.429 28.7C160.683 28.7 160.896 28.7933 161.069 28.98C161.256 29.1533 161.349 29.3667 161.349 29.62V30.44C161.536 30.1733 161.769 29.9 162.049 29.62C162.343 29.34 162.709 29.1 163.149 28.9C163.589 28.7 164.123 28.6 164.749 28.6C165.549 28.6 166.203 28.8133 166.709 29.24C167.229 29.6667 167.596 30.14 167.809 30.66C167.969 30.4067 168.196 30.12 168.489 29.8C168.783 29.48 169.169 29.2 169.649 28.96C170.143 28.72 170.756 28.6 171.489 28.6C172.276 28.6 172.916 28.8 173.409 29.2C173.903 29.5867 174.263 30.0733 174.489 30.66C174.716 31.2467 174.829 31.84 174.829 32.44V38.2C174.829 38.4533 174.736 38.6667 174.549 38.84C174.376 39.0133 174.163 39.1 173.909 39.1C173.656 39.1 173.443 39.0133 173.269 38.84C173.096 38.6667 173.009 38.4533 173.009 38.2V32.8C173.009 31.96 172.856 31.3333 172.549 30.92C172.256 30.4933 171.729 30.28 170.969 30.28C170.463 30.28 170.029 30.38 169.669 30.58C169.309 30.7667 169.003 31.0067 168.749 31.3C168.496 31.5933 168.276 31.8933 168.089 32.2V38.2C168.089 38.4533 167.996 38.6667 167.809 38.84C167.636 39.0133 167.423 39.1 167.169 39.1C166.916 39.1 166.703 39.0133 166.529 38.84C166.356 38.6667 166.269 38.4533 166.269 38.2V32.8C166.269 31.96 166.116 31.3333 165.809 30.92C165.516 30.4933 164.989 30.28 164.229 30.28C163.723 30.28 163.289 30.38 162.929 30.58C162.569 30.7667 162.263 31.0067 162.009 31.3C161.756 31.5933 161.536 31.8933 161.349 32.2V38.2C161.349 38.4533 161.256 38.6667 161.069 38.84C160.896 39.0133 160.683 39.1 160.429 39.1ZM180.489 39.2C179.915 39.2 179.375 39.08 178.869 38.84C178.375 38.6 177.975 38.26 177.669 37.82C177.375 37.3667 177.229 36.8267 177.229 36.2C177.229 35.2533 177.602 34.48 178.349 33.88C179.109 33.2667 180.269 32.96 181.829 32.96H184.249V32.8C184.249 31.9067 184.029 31.2733 183.589 30.9C183.149 30.5133 182.475 30.32 181.569 30.32C181.009 30.32 180.515 30.3733 180.089 30.48C179.675 30.5733 179.282 30.68 178.909 30.8C178.802 30.8267 178.715 30.84 178.649 30.84C178.449 30.84 178.275 30.7667 178.129 30.62C177.982 30.4733 177.909 30.2933 177.909 30.08C177.909 29.72 178.082 29.4667 178.429 29.32C178.895 29.12 179.409 28.9533 179.969 28.82C180.542 28.6733 181.182 28.6 181.889 28.6C182.862 28.6 183.655 28.7933 184.269 29.18C184.882 29.5667 185.335 30.06 185.629 30.66C185.922 31.26 186.069 31.8867 186.069 32.54V38.2C186.069 38.4533 185.975 38.6667 185.789 38.84C185.615 39.0133 185.402 39.1 185.149 39.1C184.895 39.1 184.682 39.0133 184.509 38.84C184.335 38.6667 184.249 38.4533 184.249 38.2V37.68C183.889 38.0533 183.409 38.4 182.809 38.72C182.209 39.04 181.435 39.2 180.489 39.2ZM181.169 37.6C181.795 37.6 182.382 37.4467 182.929 37.14C183.475 36.8333 183.915 36.4867 184.249 36.1V34.42H182.069C181.135 34.42 180.395 34.54 179.849 34.78C179.315 35.02 179.049 35.4267 179.049 36C179.049 36.4267 179.195 36.8 179.489 37.12C179.795 37.44 180.355 37.6 181.169 37.6ZM192.405 39.2C192.165 39.2 191.878 39.1733 191.545 39.12C191.225 39.08 190.905 38.98 190.585 38.82C190.278 38.6467 190.018 38.38 189.805 38.02C189.591 37.66 189.485 37.1733 189.485 36.56V30.36H188.065C187.811 30.36 187.685 30.2333 187.685 29.98C187.685 29.8467 187.745 29.7333 187.865 29.64L190.585 26.98C190.611 26.9533 190.651 26.92 190.705 26.88C190.771 26.8267 190.845 26.8 190.925 26.8C191.031 26.8 191.118 26.84 191.185 26.92C191.265 27 191.305 27.0933 191.305 27.2V28.8H193.565C193.791 28.8 193.978 28.8733 194.125 29.02C194.271 29.1667 194.345 29.3533 194.345 29.58C194.345 29.7933 194.271 29.98 194.125 30.14C193.978 30.2867 193.791 30.36 193.565 30.36H191.305V36.4C191.305 36.7867 191.378 37.0667 191.525 37.24C191.671 37.4133 191.845 37.52 192.045 37.56C192.258 37.5867 192.445 37.6 192.605 37.6C192.925 37.6 193.158 37.5733 193.305 37.52C193.465 37.4533 193.631 37.42 193.805 37.42C193.991 37.42 194.158 37.4867 194.305 37.62C194.451 37.7533 194.525 37.9267 194.525 38.14C194.525 38.4467 194.371 38.68 194.065 38.84C193.825 38.9467 193.565 39.0333 193.285 39.1C193.018 39.1667 192.725 39.2 192.405 39.2ZM197.381 26.72C197.101 26.72 196.861 26.62 196.661 26.42C196.461 26.22 196.361 25.98 196.361 25.7V25.62C196.361 25.34 196.461 25.1 196.661 24.9C196.861 24.7 197.101 24.6 197.381 24.6H197.501C197.781 24.6 198.021 24.7 198.221 24.9C198.421 25.1 198.521 25.34 198.521 25.62V25.7C198.521 25.98 198.421 26.22 198.221 26.42C198.021 26.62 197.781 26.72 197.501 26.72H197.381ZM197.421 39.1C197.168 39.1 196.955 39.0133 196.781 38.84C196.608 38.6667 196.521 38.4533 196.521 38.2V29.62C196.521 29.3533 196.608 29.1333 196.781 28.96C196.955 28.7867 197.168 28.7 197.421 28.7C197.688 28.7 197.908 28.7867 198.081 28.96C198.255 29.1333 198.341 29.3533 198.341 29.62V38.2C198.341 38.4533 198.255 38.6667 198.081 38.84C197.908 39.0133 197.688 39.1 197.421 39.1ZM206.002 39.2C204.975 39.2 204.075 38.98 203.302 38.54C202.529 38.0867 201.929 37.4667 201.502 36.68C201.089 35.88 200.882 34.9533 200.882 33.9C200.882 32.8467 201.089 31.9267 201.502 31.14C201.929 30.34 202.529 29.72 203.302 29.28C204.075 28.8267 204.975 28.6 206.002 28.6C207.029 28.6 207.922 28.8267 208.682 29.28C209.455 29.72 210.055 30.34 210.482 31.14C210.909 31.9267 211.122 32.8467 211.122 33.9C211.122 34.9533 210.909 35.88 210.482 36.68C210.055 37.4667 209.455 38.0867 208.682 38.54C207.922 38.98 207.029 39.2 206.002 39.2ZM206.002 37.54C206.509 37.54 207.015 37.42 207.522 37.18C208.029 36.94 208.449 36.5533 208.782 36.02C209.129 35.4733 209.302 34.76 209.302 33.88C209.302 33 209.129 32.2933 208.782 31.76C208.449 31.2267 208.029 30.8467 207.522 30.62C207.015 30.38 206.509 30.26 206.002 30.26C205.495 30.26 204.982 30.38 204.462 30.62C203.955 30.8467 203.535 31.2267 203.202 31.76C202.869 32.2933 202.702 33 202.702 33.88C202.702 34.76 202.869 35.4733 203.202 36.02C203.535 36.5533 203.955 36.94 204.462 37.18C204.982 37.42 205.495 37.54 206.002 37.54ZM214.57 39.1C214.317 39.1 214.103 39.0133 213.93 38.84C213.757 38.6667 213.67 38.4533 213.67 38.2V29.62C213.67 29.3533 213.757 29.1333 213.93 28.96C214.103 28.7867 214.317 28.7 214.57 28.7C214.823 28.7 215.037 28.7867 215.21 28.96C215.397 29.1333 215.49 29.3533 215.49 29.62V30.44C215.917 29.9733 216.417 29.5533 216.99 29.18C217.577 28.7933 218.317 28.6 219.21 28.6C219.97 28.6 220.617 28.78 221.15 29.14C221.683 29.4867 222.09 29.96 222.37 30.56C222.65 31.1467 222.79 31.8 222.79 32.52V38.2C222.79 38.4533 222.697 38.6667 222.51 38.84C222.337 39.0133 222.123 39.1 221.87 39.1C221.617 39.1 221.403 39.0133 221.23 38.84C221.057 38.6667 220.97 38.4533 220.97 38.2V32.72C220.97 31.96 220.797 31.3667 220.45 30.94C220.117 30.5 219.557 30.28 218.77 30.28C218.05 30.28 217.423 30.4733 216.89 30.86C216.357 31.2467 215.89 31.6933 215.49 32.2V38.2C215.49 38.4533 215.397 38.6667 215.21 38.84C215.037 39.0133 214.823 39.1 214.57 39.1Z" fill="black"/>
<rect width="234" height="44" transform="translate(11 55)" fill="white"/>
<g clip-path="url(#clip0_1156_1886)">
<path d="M43 80C44.6569 80 46 78.6569 46 77C46 75.3431 44.6569 74 43 74C41.3431 74 40 75.3431 40 77C40 78.6569 41.3431 80 43 80Z" stroke="#F59643" stroke-width="2" stroke-linecap="round" stroke-linejoin="round"/>
<path d="M50.4 80C50.2669 80.3016 50.2272 80.6362 50.286 80.9606C50.3448 81.285 50.4995 81.5843 50.73 81.82L50.79 81.88C50.976 82.0657 51.1235 82.2863 51.2241 82.5291C51.3248 82.7719 51.3766 83.0322 51.3766 83.295C51.3766 83.5578 51.3248 83.8181 51.2241 84.0609C51.1235 84.3037 50.976 84.5243 50.79 84.71C50.6043 84.896 50.3837 85.0435 50.1409 85.1441C49.8981 85.2448 49.6378 85.2966 49.375 85.2966C49.1122 85.2966 48.8519 85.2448 48.6091 85.1441C48.3663 85.0435 48.1457 84.896 47.96 84.71L47.9 84.65C47.6643 84.4195 47.365 84.2648 47.0406 84.206C46.7162 84.1472 46.3816 84.1869 46.08 84.32C45.7842 84.4468 45.532 84.6572 45.3543 84.9255C45.1766 85.1938 45.0813 85.5082 45.08 85.83V86C45.08 86.5304 44.8693 87.0391 44.4942 87.4142C44.1191 87.7893 43.6104 88 43.08 88C42.5496 88 42.0409 87.7893 41.6658 87.4142C41.2907 87.0391 41.08 86.5304 41.08 86V85.91C41.0723 85.579 40.9651 85.258 40.7725 84.9887C40.5799 84.7194 40.3107 84.5143 40 84.4C39.6984 84.2669 39.3638 84.2272 39.0394 84.286C38.715 84.3448 38.4157 84.4995 38.18 84.73L38.12 84.79C37.9343 84.976 37.7137 85.1235 37.4709 85.2241C37.2281 85.3248 36.9678 85.3766 36.705 85.3766C36.4422 85.3766 36.1819 85.3248 35.9391 85.2241C35.6963 85.1235 35.4757 84.976 35.29 84.79C35.104 84.6043 34.9565 84.3837 34.8559 84.1409C34.7552 83.8981 34.7034 83.6378 34.7034 83.375C34.7034 83.1122 34.7552 82.8519 34.8559 82.6091C34.9565 82.3663 35.104 82.1457 35.29 81.96L35.35 81.9C35.5805 81.6643 35.7352 81.365 35.794 81.0406C35.8528 80.7162 35.8131 80.3816 35.68 80.08C35.5532 79.7842 35.3428 79.532 35.0745 79.3543C34.8062 79.1766 34.4918 79.0813 34.17 79.08H34C33.4696 79.08 32.9609 78.8693 32.5858 78.4942C32.2107 78.1191 32 77.6104 32 77.08C32 76.5496 32.2107 76.0409 32.5858 75.6658C32.9609 75.2907 33.4696 75.08 34 75.08H34.09C34.421 75.0723 34.742 74.9651 35.0113 74.7725C35.2806 74.5799 35.4857 74.3107 35.6 74C35.7331 73.6984 35.7728 73.3638 35.714 73.0394C35.6552 72.715 35.5005 72.4157 35.27 72.18L35.21 72.12C35.024 71.9343 34.8765 71.7137 34.7759 71.4709C34.6752 71.2281 34.6234 70.9678 34.6234 70.705C34.6234 70.4422 34.6752 70.1819 34.7759 69.9391C34.8765 69.6963 35.024 69.4757 35.21 69.29C35.3957 69.104 35.6163 68.9565 35.8591 68.8559C36.1019 68.7552 36.3622 68.7034 36.625 68.7034C36.8878 68.7034 37.1481 68.7552 37.3909 68.8559C37.6337 68.9565 37.8543 69.104 38.04 69.29L38.1 69.35C38.3357 69.5805 38.635 69.7352 38.9594 69.794C39.2838 69.8528 39.6184 69.8131 39.92 69.68H40C40.2958 69.5532 40.548 69.3428 40.7257 69.0745C40.9034 68.8062 40.9987 68.4918 41 68.17V68C41 67.4696 41.2107 66.9609 41.5858 66.5858C41.9609 66.2107 42.4696 66 43 66C43.5304 66 44.0391 66.2107 44.4142 66.5858C44.7893 66.9609 45 67.4696 45 68V68.09C45.0013 68.4118 45.0966 68.7262 45.2743 68.9945C45.452 69.2628 45.7042 69.4732 46 69.6C46.3016 69.7331 46.6362 69.7728 46.9606 69.714C47.285 69.6552 47.5843 69.5005 47.82 69.27L47.88 69.21C48.0657 69.024 48.2863 68.8765 48.5291 68.7759C48.7719 68.6752 49.0322 68.6234 49.295 68.6234C49.5578 68.6234 49.8181 68.6752 50.0609 68.7759C50.3037 68.8765 50.5243 69.024 50.71 69.21C50.896 69.3957 51.0435 69.6163 51.1441 69.8591C51.2448 70.1019 51.2966 70.3622 51.2966 70.625C51.2966 70.8878 51.2448 71.1481 51.1441 71.3909C51.0435 71.6337 50.896 71.8543 50.71 72.04L50.65 72.1C50.4195 72.3357 50.2648 72.635 50.206 72.9594C50.1472 73.2838 50.1869 73.6184 50.32 73.92V74C50.4468 74.2958 50.6572 74.548 50.9255 74.7257C51.1938 74.9034 51.5082 74.9987 51.83 75H52C52.5304 75 53.0391 75.2107 53.4142 75.5858C53.7893 75.9609 54 76.4696 54 77C54 77.5304 53.7893 78.0391 53.4142 78.4142C53.0391 78.7893 52.5304 79 52 79H51.91C51.5882 79.0013 51.2738 79.0966 51.0055 79.2743C50.7372 79.452 50.5268 79.7042 50.4 80Z" stroke="#F59643" stroke-width="2" stroke-linecap="round" stroke-linejoin="round"/>
</g>
<path d="M72.58 83.2C71.9133 83.2 71.24 83.0933 70.56 82.88C69.88 82.6667 69.26 82.34 68.7 81.9C68.14 81.4467 67.6867 80.88 67.34 80.2C67.0067 79.5067 66.84 78.6933 66.84 77.76V69.86C66.84 69.6067 66.9267 69.3933 67.1 69.22C67.2733 69.0333 67.4867 68.94 67.74 68.94C67.9933 68.94 68.2067 69.0333 68.38 69.22C68.5667 69.3933 68.66 69.6067 68.66 69.86V77.82C68.66 78.6467 68.8467 79.34 69.22 79.9C69.6067 80.4467 70.1 80.86 70.7 81.14C71.3 81.4067 71.9267 81.54 72.58 81.54C73.2333 81.54 73.86 81.4067 74.46 81.14C75.06 80.86 75.5467 80.4467 75.92 79.9C76.3067 79.34 76.5 78.6467 76.5 77.82V69.86C76.5 69.6067 76.5867 69.3933 76.76 69.22C76.9333 69.0333 77.1467 68.94 77.4 68.94C77.6533 68.94 77.8667 69.0333 78.04 69.22C78.2267 69.3933 78.32 69.6067 78.32 69.86V77.76C78.32 78.6933 78.1467 79.5067 77.8 80.2C77.4667 80.88 77.02 81.4467 76.46 81.9C75.9 82.34 75.28 82.6667 74.6 82.88C73.92 83.0933 73.2467 83.2 72.58 83.2ZM84.7238 83.2C83.9904 83.2 83.3238 83.12 82.7238 82.96C82.1371 82.8 81.5904 82.58 81.0838 82.3C80.8571 82.14 80.7438 81.92 80.7438 81.64C80.7438 81.44 80.8171 81.26 80.9638 81.1C81.1104 80.9267 81.2971 80.84 81.5238 80.84C81.6438 80.84 81.7638 80.8667 81.8838 80.92C82.2438 81.08 82.6371 81.22 83.0638 81.34C83.5038 81.46 84.0171 81.52 84.6038 81.52C85.3771 81.52 85.9371 81.4 86.2838 81.16C86.6438 80.9067 86.8238 80.5533 86.8238 80.1C86.8238 79.8067 86.6771 79.58 86.3838 79.42C86.1038 79.26 85.7304 79.1267 85.2638 79.02C84.8104 78.9 84.3304 78.78 83.8238 78.66C83.3171 78.5267 82.8304 78.3533 82.3638 78.14C81.9104 77.9133 81.5371 77.6133 81.2438 77.24C80.9638 76.8533 80.8238 76.36 80.8238 75.76C80.8238 74.8533 81.1504 74.1 81.8038 73.5C82.4571 72.9 83.4304 72.6 84.7238 72.6C85.2704 72.6 85.7838 72.6467 86.2638 72.74C86.7571 72.8333 87.2104 72.9533 87.6238 73.1C87.8104 73.1533 87.9504 73.26 88.0438 73.42C88.1504 73.5667 88.2038 73.7133 88.2038 73.86C88.2038 74.0733 88.1238 74.26 87.9638 74.42C87.8171 74.58 87.6304 74.66 87.4038 74.66C87.3504 74.66 87.3038 74.66 87.2638 74.66C87.2238 74.6467 87.1838 74.6333 87.1438 74.62C86.8238 74.5133 86.4704 74.4267 86.0838 74.36C85.7104 74.2933 85.3038 74.26 84.8638 74.26C84.1304 74.26 83.5638 74.3933 83.1638 74.66C82.7638 74.9267 82.5638 75.26 82.5638 75.66C82.5638 76.0067 82.7038 76.2733 82.9838 76.46C83.2771 76.6467 83.6504 76.8 84.1038 76.92C84.5704 77.0267 85.0571 77.14 85.5638 77.26C86.0838 77.38 86.5704 77.5533 87.0238 77.78C87.4904 77.9933 87.8638 78.2933 88.1438 78.68C88.4371 79.0667 88.5838 79.5867 88.5838 80.24C88.5838 81.0533 88.2571 81.7533 87.6038 82.34C86.9638 82.9133 86.0038 83.2 84.7238 83.2ZM95.5931 83.2C93.9665 83.2 92.6931 82.74 91.7731 81.82C90.8665 80.8867 90.4131 79.58 90.4131 77.9C90.4131 76.9933 90.5798 76.14 90.9131 75.34C91.2465 74.5267 91.7665 73.8667 92.4731 73.36C93.1798 72.8533 94.0865 72.6 95.1931 72.6C96.2198 72.6 97.0865 72.84 97.7931 73.32C98.4998 73.7867 99.0331 74.4 99.3931 75.16C99.7665 75.92 99.9531 76.7467 99.9531 77.64C99.9531 77.8933 99.8665 78.1067 99.6931 78.28C99.5331 78.4533 99.3131 78.54 99.0331 78.54H92.2531C92.3598 79.4333 92.6998 80.1533 93.2731 80.7C93.8465 81.2333 94.6731 81.5 95.7531 81.5C96.3531 81.5 96.8598 81.4467 97.2731 81.34C97.6865 81.22 98.0798 81.0667 98.4531 80.88C98.5598 80.8267 98.6798 80.8 98.8131 80.8C99.0265 80.8 99.2131 80.8733 99.3731 81.02C99.5331 81.1667 99.6131 81.3533 99.6131 81.58C99.6131 81.74 99.5598 81.8867 99.4531 82.02C99.3598 82.14 99.2398 82.24 99.0931 82.32C98.6531 82.5733 98.1731 82.7867 97.6531 82.96C97.1465 83.12 96.4598 83.2 95.5931 83.2ZM92.2531 77.06H98.1531C98.1131 76.3667 97.9331 75.8067 97.6131 75.38C97.3065 74.9533 96.9331 74.64 96.4931 74.44C96.0531 74.24 95.6198 74.14 95.1931 74.14C94.7665 74.14 94.3331 74.24 93.8931 74.44C93.4531 74.64 93.0798 74.9533 92.7731 75.38C92.4665 75.8067 92.2931 76.3667 92.2531 77.06ZM103.261 83.1C103.008 83.1 102.795 83.0133 102.621 82.84C102.448 82.6667 102.361 82.4533 102.361 82.2V73.62C102.361 73.3667 102.448 73.1533 102.621 72.98C102.795 72.7933 103.008 72.7 103.261 72.7C103.515 72.7 103.728 72.7933 103.901 72.98C104.088 73.1533 104.181 73.3667 104.181 73.62V74.48C104.541 74 104.981 73.5667 105.501 73.18C106.021 72.7933 106.628 72.6 107.321 72.6H107.421C107.675 72.6 107.881 72.6867 108.041 72.86C108.215 73.0333 108.301 73.2467 108.301 73.5C108.301 73.7533 108.215 73.96 108.041 74.12C107.868 74.28 107.648 74.36 107.381 74.36H107.281C106.628 74.36 106.035 74.5267 105.501 74.86C104.968 75.18 104.528 75.6 104.181 76.12V82.2C104.181 82.4533 104.088 82.6667 103.901 82.84C103.728 83.0133 103.515 83.1 103.261 83.1ZM119.973 83.2C118.973 83.2 118.073 83.1067 117.273 82.92C116.486 82.72 115.799 82.4933 115.213 82.24C115.066 82.1733 114.933 82.0667 114.813 81.92C114.706 81.76 114.653 81.5933 114.653 81.42C114.653 81.1933 114.726 81 114.873 80.84C115.019 80.6667 115.219 80.58 115.473 80.58C115.606 80.58 115.733 80.6067 115.853 80.66C116.306 80.86 116.859 81.0467 117.513 81.22C118.179 81.3933 118.939 81.48 119.793 81.48C120.459 81.48 121.053 81.4133 121.573 81.28C122.106 81.1333 122.526 80.8933 122.833 80.56C123.139 80.2133 123.293 79.7533 123.293 79.18C123.293 78.7533 123.139 78.4133 122.833 78.16C122.526 77.8933 122.119 77.6733 121.613 77.5C121.106 77.3267 120.546 77.1667 119.933 77.02C119.333 76.8733 118.733 76.7133 118.133 76.54C117.533 76.3533 116.979 76.1133 116.473 75.82C115.966 75.5267 115.559 75.1533 115.253 74.7C114.946 74.2333 114.793 73.6467 114.793 72.94C114.793 72.1933 114.986 71.5133 115.373 70.9C115.773 70.2733 116.359 69.7733 117.133 69.4C117.906 69.0267 118.853 68.84 119.973 68.84C120.759 68.84 121.486 68.9 122.153 69.02C122.819 69.14 123.419 69.3 123.953 69.5C124.099 69.5533 124.226 69.64 124.333 69.76C124.453 69.88 124.513 70.06 124.513 70.3C124.513 70.5 124.439 70.6933 124.293 70.88C124.159 71.0533 123.966 71.14 123.713 71.14C123.659 71.14 123.606 71.1333 123.553 71.12C123.499 71.0933 123.446 71.0733 123.393 71.06C122.939 70.9 122.439 70.7733 121.893 70.68C121.359 70.5733 120.786 70.52 120.173 70.52C119.159 70.52 118.313 70.7133 117.633 71.1C116.953 71.4867 116.613 72.0533 116.613 72.8C116.613 73.2933 116.766 73.6867 117.073 73.98C117.379 74.2733 117.786 74.5067 118.293 74.68C118.799 74.8533 119.353 75.0133 119.953 75.16C120.553 75.2933 121.153 75.4467 121.753 75.62C122.353 75.7933 122.906 76.0267 123.413 76.32C123.919 76.6 124.326 76.98 124.633 77.46C124.939 77.9267 125.093 78.54 125.093 79.3C125.093 80.0467 124.879 80.72 124.453 81.32C124.039 81.9067 123.446 82.3667 122.673 82.7C121.913 83.0333 121.013 83.2 119.973 83.2ZM132.097 83.2C130.47 83.2 129.197 82.74 128.277 81.82C127.37 80.8867 126.917 79.58 126.917 77.9C126.917 76.9933 127.084 76.14 127.417 75.34C127.75 74.5267 128.27 73.8667 128.977 73.36C129.684 72.8533 130.59 72.6 131.697 72.6C132.724 72.6 133.59 72.84 134.297 73.32C135.004 73.7867 135.537 74.4 135.897 75.16C136.27 75.92 136.457 76.7467 136.457 77.64C136.457 77.8933 136.37 78.1067 136.197 78.28C136.037 78.4533 135.817 78.54 135.537 78.54H128.757C128.864 79.4333 129.204 80.1533 129.777 80.7C130.35 81.2333 131.177 81.5 132.257 81.5C132.857 81.5 133.364 81.4467 133.777 81.34C134.19 81.22 134.584 81.0667 134.957 80.88C135.064 80.8267 135.184 80.8 135.317 80.8C135.53 80.8 135.717 80.8733 135.877 81.02C136.037 81.1667 136.117 81.3533 136.117 81.58C136.117 81.74 136.064 81.8867 135.957 82.02C135.864 82.14 135.744 82.24 135.597 82.32C135.157 82.5733 134.677 82.7867 134.157 82.96C133.65 83.12 132.964 83.2 132.097 83.2ZM128.757 77.06H134.657C134.617 76.3667 134.437 75.8067 134.117 75.38C133.81 74.9533 133.437 74.64 132.997 74.44C132.557 74.24 132.124 74.14 131.697 74.14C131.27 74.14 130.837 74.24 130.397 74.44C129.957 74.64 129.584 74.9533 129.277 75.38C128.97 75.8067 128.797 76.3667 128.757 77.06ZM142.385 83.2C142.145 83.2 141.858 83.1733 141.525 83.12C141.205 83.08 140.885 82.98 140.565 82.82C140.258 82.6467 139.998 82.38 139.785 82.02C139.572 81.66 139.465 81.1733 139.465 80.56V74.36H138.045C137.792 74.36 137.665 74.2333 137.665 73.98C137.665 73.8467 137.725 73.7333 137.845 73.64L140.565 70.98C140.592 70.9533 140.632 70.92 140.685 70.88C140.752 70.8267 140.825 70.8 140.905 70.8C141.012 70.8 141.098 70.84 141.165 70.92C141.245 71 141.285 71.0933 141.285 71.2V72.8H143.545C143.772 72.8 143.958 72.8733 144.105 73.02C144.252 73.1667 144.325 73.3533 144.325 73.58C144.325 73.7933 144.252 73.98 144.105 74.14C143.958 74.2867 143.772 74.36 143.545 74.36H141.285V80.4C141.285 80.7867 141.358 81.0667 141.505 81.24C141.652 81.4133 141.825 81.52 142.025 81.56C142.238 81.5867 142.425 81.6 142.585 81.6C142.905 81.6 143.138 81.5733 143.285 81.52C143.445 81.4533 143.612 81.42 143.785 81.42C143.972 81.42 144.138 81.4867 144.285 81.62C144.432 81.7533 144.505 81.9267 144.505 82.14C144.505 82.4467 144.352 82.68 144.045 82.84C143.805 82.9467 143.545 83.0333 143.265 83.1C142.998 83.1667 142.705 83.2 142.385 83.2ZM150.022 83.2C149.782 83.2 149.495 83.1733 149.162 83.12C148.842 83.08 148.522 82.98 148.202 82.82C147.895 82.6467 147.635 82.38 147.422 82.02C147.209 81.66 147.102 81.1733 147.102 80.56V74.36H145.682C145.429 74.36 145.302 74.2333 145.302 73.98C145.302 73.8467 145.362 73.7333 145.482 73.64L148.202 70.98C148.229 70.9533 148.269 70.92 148.322 70.88C148.389 70.8267 148.462 70.8 148.542 70.8C148.649 70.8 148.735 70.84 148.802 70.92C148.882 71 148.922 71.0933 148.922 71.2V72.8H151.182C151.409 72.8 151.595 72.8733 151.742 73.02C151.889 73.1667 151.962 73.3533 151.962 73.58C151.962 73.7933 151.889 73.98 151.742 74.14C151.595 74.2867 151.409 74.36 151.182 74.36H148.922V80.4C148.922 80.7867 148.995 81.0667 149.142 81.24C149.289 81.4133 149.462 81.52 149.662 81.56C149.875 81.5867 150.062 81.6 150.222 81.6C150.542 81.6 150.775 81.5733 150.922 81.52C151.082 81.4533 151.249 81.42 151.422 81.42C151.609 81.42 151.775 81.4867 151.922 81.62C152.069 81.7533 152.142 81.9267 152.142 82.14C152.142 82.4467 151.989 82.68 151.682 82.84C151.442 82.9467 151.182 83.0333 150.902 83.1C150.635 83.1667 150.342 83.2 150.022 83.2ZM154.999 70.72C154.719 70.72 154.479 70.62 154.279 70.42C154.079 70.22 153.979 69.98 153.979 69.7V69.62C153.979 69.34 154.079 69.1 154.279 68.9C154.479 68.7 154.719 68.6 154.999 68.6H155.119C155.399 68.6 155.639 68.7 155.839 68.9C156.039 69.1 156.139 69.34 156.139 69.62V69.7C156.139 69.98 156.039 70.22 155.839 70.42C155.639 70.62 155.399 70.72 155.119 70.72H154.999ZM155.039 83.1C154.785 83.1 154.572 83.0133 154.399 82.84C154.225 82.6667 154.139 82.4533 154.139 82.2V73.62C154.139 73.3533 154.225 73.1333 154.399 72.96C154.572 72.7867 154.785 72.7 155.039 72.7C155.305 72.7 155.525 72.7867 155.699 72.96C155.872 73.1333 155.959 73.3533 155.959 73.62V82.2C155.959 82.4533 155.872 82.6667 155.699 82.84C155.525 83.0133 155.305 83.1 155.039 83.1ZM160.019 83.1C159.766 83.1 159.552 83.0133 159.379 82.84C159.206 82.6667 159.119 82.4533 159.119 82.2V73.62C159.119 73.3533 159.206 73.1333 159.379 72.96C159.552 72.7867 159.766 72.7 160.019 72.7C160.272 72.7 160.486 72.7867 160.659 72.96C160.846 73.1333 160.939 73.3533 160.939 73.62V74.44C161.366 73.9733 161.866 73.5533 162.439 73.18C163.026 72.7933 163.766 72.6 164.659 72.6C165.419 72.6 166.066 72.78 166.599 73.14C167.132 73.4867 167.539 73.96 167.819 74.56C168.099 75.1467 168.239 75.8 168.239 76.52V82.2C168.239 82.4533 168.146 82.6667 167.959 82.84C167.786 83.0133 167.572 83.1 167.319 83.1C167.066 83.1 166.852 83.0133 166.679 82.84C166.506 82.6667 166.419 82.4533 166.419 82.2V76.72C166.419 75.96 166.246 75.3667 165.899 74.94C165.566 74.5 165.006 74.28 164.219 74.28C163.499 74.28 162.872 74.4733 162.339 74.86C161.806 75.2467 161.339 75.6933 160.939 76.2V82.2C160.939 82.4533 160.846 82.6667 160.659 82.84C160.486 83.0133 160.272 83.1 160.019 83.1ZM176.067 87.8C175.253 87.8 174.453 87.6933 173.667 87.48C172.88 87.2667 172.253 87.0267 171.787 86.76C171.693 86.6933 171.607 86.6067 171.527 86.5C171.46 86.3933 171.427 86.2467 171.427 86.06C171.427 85.86 171.5 85.6733 171.647 85.5C171.807 85.3267 172 85.24 172.227 85.24C172.293 85.24 172.353 85.2467 172.407 85.26C172.473 85.2733 172.533 85.2933 172.587 85.32C173.013 85.5333 173.5 85.7133 174.047 85.86C174.593 86.0067 175.207 86.08 175.887 86.08C177.927 86.08 178.947 84.9933 178.947 82.82V81.48C178.533 81.92 178.047 82.2867 177.487 82.58C176.927 82.86 176.273 83 175.527 83C174.967 83 174.4 82.8933 173.827 82.68C173.267 82.4667 172.747 82.1467 172.267 81.72C171.8 81.2933 171.42 80.7533 171.127 80.1C170.833 79.4467 170.687 78.68 170.687 77.8C170.687 76.92 170.833 76.1533 171.127 75.5C171.42 74.8467 171.8 74.3067 172.267 73.88C172.747 73.4533 173.267 73.1333 173.827 72.92C174.4 72.7067 174.967 72.6 175.527 72.6C176.273 72.6 176.927 72.7467 177.487 73.04C178.047 73.32 178.533 73.68 178.947 74.12V73.62C178.947 73.3667 179.033 73.1533 179.207 72.98C179.38 72.7933 179.593 72.7 179.847 72.7C180.1 72.7 180.313 72.7933 180.487 72.98C180.673 73.1533 180.767 73.3667 180.767 73.62V82.56C180.767 84.24 180.36 85.5333 179.547 86.44C178.733 87.3467 177.573 87.8 176.067 87.8ZM175.907 81.34C176.6 81.34 177.187 81.1867 177.667 80.88C178.147 80.5733 178.573 80.2333 178.947 79.86V75.74C178.573 75.3533 178.147 75.0133 177.667 74.72C177.187 74.4133 176.6 74.26 175.907 74.26C175.28 74.26 174.707 74.3867 174.187 74.64C173.667 74.8933 173.253 75.2867 172.947 75.82C172.653 76.34 172.507 77 172.507 77.8C172.507 78.6 172.653 79.2667 172.947 79.8C173.253 80.32 173.667 80.7067 174.187 80.96C174.707 81.2133 175.28 81.34 175.907 81.34ZM187.224 83.2C186.49 83.2 185.824 83.12 185.224 82.96C184.637 82.8 184.09 82.58 183.584 82.3C183.357 82.14 183.244 81.92 183.244 81.64C183.244 81.44 183.317 81.26 183.464 81.1C183.61 80.9267 183.797 80.84 184.024 80.84C184.144 80.84 184.264 80.8667 184.384 80.92C184.744 81.08 185.137 81.22 185.564 81.34C186.004 81.46 186.517 81.52 187.104 81.52C187.877 81.52 188.437 81.4 188.784 81.16C189.144 80.9067 189.324 80.5533 189.324 80.1C189.324 79.8067 189.177 79.58 188.884 79.42C188.604 79.26 188.23 79.1267 187.764 79.02C187.31 78.9 186.83 78.78 186.324 78.66C185.817 78.5267 185.33 78.3533 184.864 78.14C184.41 77.9133 184.037 77.6133 183.744 77.24C183.464 76.8533 183.324 76.36 183.324 75.76C183.324 74.8533 183.65 74.1 184.304 73.5C184.957 72.9 185.93 72.6 187.224 72.6C187.77 72.6 188.284 72.6467 188.764 72.74C189.257 72.8333 189.71 72.9533 190.124 73.1C190.31 73.1533 190.45 73.26 190.544 73.42C190.65 73.5667 190.704 73.7133 190.704 73.86C190.704 74.0733 190.624 74.26 190.464 74.42C190.317 74.58 190.13 74.66 189.904 74.66C189.85 74.66 189.804 74.66 189.764 74.66C189.724 74.6467 189.684 74.6333 189.644 74.62C189.324 74.5133 188.97 74.4267 188.584 74.36C188.21 74.2933 187.804 74.26 187.364 74.26C186.63 74.26 186.064 74.3933 185.664 74.66C185.264 74.9267 185.064 75.26 185.064 75.66C185.064 76.0067 185.204 76.2733 185.484 76.46C185.777 76.6467 186.15 76.8 186.604 76.92C187.07 77.0267 187.557 77.14 188.064 77.26C188.584 77.38 189.07 77.5533 189.524 77.78C189.99 77.9933 190.364 78.2933 190.644 78.68C190.937 79.0667 191.084 79.5867 191.084 80.24C191.084 81.0533 190.757 81.7533 190.104 82.34C189.464 82.9133 188.504 83.2 187.224 83.2Z" fill="black"/>
<path d="M11 98H245V132C245 137.523 240.523 142 235 142H21C15.4772 142 11 137.523 11 132V98Z" fill="white"/>
<path d="M40 129H36C35.4696 129 34.9609 128.789 34.5858 128.414C34.2107 128.039 34 127.53 34 127V113C34 112.47 34.2107 111.961 34.5858 111.586C34.9609 111.211 35.4696 111 36 111H40M47 125L52 120M52 120L47 115M52 120H40" stroke="#F59643" stroke-width="2" stroke-linecap="round" stroke-linejoin="round"/>
<path d="M71.34 126.2C70.34 126.2 69.44 126.107 68.64 125.92C67.8533 125.72 67.1667 125.493 66.58 125.24C66.4333 125.173 66.3 125.067 66.18 124.92C66.0733 124.76 66.02 124.593 66.02 124.42C66.02 124.193 66.0933 124 66.24 123.84C66.3867 123.667 66.5867 123.58 66.84 123.58C66.9733 123.58 67.1 123.607 67.22 123.66C67.6733 123.86 68.2267 124.047 68.88 124.22C69.5467 124.393 70.3067 124.48 71.16 124.48C71.8267 124.48 72.42 124.413 72.94 124.28C73.4733 124.133 73.8933 123.893 74.2 123.56C74.5067 123.213 74.66 122.753 74.66 122.18C74.66 121.753 74.5067 121.413 74.2 121.16C73.8933 120.893 73.4867 120.673 72.98 120.5C72.4733 120.327 71.9133 120.167 71.3 120.02C70.7 119.873 70.1 119.713 69.5 119.54C68.9 119.353 68.3467 119.113 67.84 118.82C67.3333 118.527 66.9267 118.153 66.62 117.7C66.3133 117.233 66.16 116.647 66.16 115.94C66.16 115.193 66.3533 114.513 66.74 113.9C67.14 113.273 67.7267 112.773 68.5 112.4C69.2733 112.027 70.22 111.84 71.34 111.84C72.1267 111.84 72.8533 111.9 73.52 112.02C74.1867 112.14 74.7867 112.3 75.32 112.5C75.4667 112.553 75.5933 112.64 75.7 112.76C75.82 112.88 75.88 113.06 75.88 113.3C75.88 113.5 75.8067 113.693 75.66 113.88C75.5267 114.053 75.3333 114.14 75.08 114.14C75.0267 114.14 74.9733 114.133 74.92 114.12C74.8667 114.093 74.8133 114.073 74.76 114.06C74.3067 113.9 73.8067 113.773 73.26 113.68C72.7267 113.573 72.1533 113.52 71.54 113.52C70.5267 113.52 69.68 113.713 69 114.1C68.32 114.487 67.98 115.053 67.98 115.8C67.98 116.293 68.1333 116.687 68.44 116.98C68.7467 117.273 69.1533 117.507 69.66 117.68C70.1667 117.853 70.72 118.013 71.32 118.16C71.92 118.293 72.52 118.447 73.12 118.62C73.72 118.793 74.2733 119.027 74.78 119.32C75.2867 119.6 75.6933 119.98 76 120.46C76.3067 120.927 76.46 121.54 76.46 122.3C76.46 123.047 76.2467 123.72 75.82 124.32C75.4067 124.907 74.8133 125.367 74.04 125.7C73.28 126.033 72.38 126.2 71.34 126.2ZM79.5884 113.72C79.3084 113.72 79.0684 113.62 78.8684 113.42C78.6684 113.22 78.5684 112.98 78.5684 112.7V112.62C78.5684 112.34 78.6684 112.1 78.8684 111.9C79.0684 111.7 79.3084 111.6 79.5884 111.6H79.7084C79.9884 111.6 80.2284 111.7 80.4284 111.9C80.6284 112.1 80.7284 112.34 80.7284 112.62V112.7C80.7284 112.98 80.6284 113.22 80.4284 113.42C80.2284 113.62 79.9884 113.72 79.7084 113.72H79.5884ZM79.6284 126.1C79.3751 126.1 79.1618 126.013 78.9884 125.84C78.8151 125.667 78.7284 125.453 78.7284 125.2V116.62C78.7284 116.353 78.8151 116.133 78.9884 115.96C79.1618 115.787 79.3751 115.7 79.6284 115.7C79.8951 115.7 80.1151 115.787 80.2884 115.96C80.4618 116.133 80.5484 116.353 80.5484 116.62V125.2C80.5484 125.453 80.4618 125.667 80.2884 125.84C80.1151 126.013 79.8951 126.1 79.6284 126.1ZM88.4689 130.8C87.6556 130.8 86.8556 130.693 86.0689 130.48C85.2822 130.267 84.6556 130.027 84.1889 129.76C84.0956 129.693 84.0089 129.607 83.9289 129.5C83.8622 129.393 83.8289 129.247 83.8289 129.06C83.8289 128.86 83.9022 128.673 84.0489 128.5C84.2089 128.327 84.4022 128.24 84.6289 128.24C84.6956 128.24 84.7556 128.247 84.8089 128.26C84.8756 128.273 84.9356 128.293 84.9889 128.32C85.4156 128.533 85.9022 128.713 86.4489 128.86C86.9956 129.007 87.6089 129.08 88.2889 129.08C90.3289 129.08 91.3489 127.993 91.3489 125.82V124.48C90.9356 124.92 90.4489 125.287 89.8889 125.58C89.3289 125.86 88.6756 126 87.9289 126C87.3689 126 86.8022 125.893 86.2289 125.68C85.6689 125.467 85.1489 125.147 84.6689 124.72C84.2022 124.293 83.8222 123.753 83.5289 123.1C83.2356 122.447 83.0889 121.68 83.0889 120.8C83.0889 119.92 83.2356 119.153 83.5289 118.5C83.8222 117.847 84.2022 117.307 84.6689 116.88C85.1489 116.453 85.6689 116.133 86.2289 115.92C86.8022 115.707 87.3689 115.6 87.9289 115.6C88.6756 115.6 89.3289 115.747 89.8889 116.04C90.4489 116.32 90.9356 116.68 91.3489 117.12V116.62C91.3489 116.367 91.4356 116.153 91.6089 115.98C91.7822 115.793 91.9956 115.7 92.2489 115.7C92.5022 115.7 92.7156 115.793 92.8889 115.98C93.0756 116.153 93.1689 116.367 93.1689 116.62V125.56C93.1689 127.24 92.7622 128.533 91.9489 129.44C91.1356 130.347 89.9756 130.8 88.4689 130.8ZM88.3089 124.34C89.0022 124.34 89.5889 124.187 90.0689 123.88C90.5489 123.573 90.9756 123.233 91.3489 122.86V118.74C90.9756 118.353 90.5489 118.013 90.0689 117.72C89.5889 117.413 89.0022 117.26 88.3089 117.26C87.6822 117.26 87.1089 117.387 86.5889 117.64C86.0689 117.893 85.6556 118.287 85.3489 118.82C85.0556 119.34 84.9089 120 84.9089 120.8C84.9089 121.6 85.0556 122.267 85.3489 122.8C85.6556 123.32 86.0689 123.707 86.5889 123.96C87.1089 124.213 87.6822 124.34 88.3089 124.34ZM97.2261 126.1C96.9728 126.1 96.7594 126.013 96.5861 125.84C96.4128 125.667 96.3261 125.453 96.3261 125.2V116.62C96.3261 116.353 96.4128 116.133 96.5861 115.96C96.7594 115.787 96.9728 115.7 97.2261 115.7C97.4794 115.7 97.6928 115.787 97.8661 115.96C98.0528 116.133 98.1461 116.353 98.1461 116.62V117.44C98.5728 116.973 99.0728 116.553 99.6461 116.18C100.233 115.793 100.973 115.6 101.866 115.6C102.626 115.6 103.273 115.78 103.806 116.14C104.339 116.487 104.746 116.96 105.026 117.56C105.306 118.147 105.446 118.8 105.446 119.52V125.2C105.446 125.453 105.353 125.667 105.166 125.84C104.993 126.013 104.779 126.1 104.526 126.1C104.273 126.1 104.059 126.013 103.886 125.84C103.713 125.667 103.626 125.453 103.626 125.2V119.72C103.626 118.96 103.453 118.367 103.106 117.94C102.773 117.5 102.213 117.28 101.426 117.28C100.706 117.28 100.079 117.473 99.5461 117.86C99.0128 118.247 98.5461 118.693 98.1461 119.2V125.2C98.1461 125.453 98.0528 125.667 97.8661 125.84C97.6928 126.013 97.4794 126.1 97.2261 126.1ZM120.249 126.2C118.822 126.2 117.589 125.893 116.549 125.28C115.509 124.667 114.702 123.82 114.129 122.74C113.556 121.66 113.256 120.42 113.229 119.02C113.256 117.62 113.556 116.38 114.129 115.3C114.702 114.22 115.509 113.373 116.549 112.76C117.589 112.147 118.822 111.84 120.249 111.84C121.676 111.84 122.909 112.147 123.949 112.76C124.989 113.373 125.796 114.22 126.369 115.3C126.942 116.38 127.242 117.62 127.269 119.02C127.242 120.42 126.942 121.66 126.369 122.74C125.796 123.82 124.989 124.667 123.949 125.28C122.909 125.893 121.676 126.2 120.249 126.2ZM120.249 124.5C121.356 124.5 122.296 124.26 123.069 123.78C123.842 123.287 124.429 122.627 124.829 121.8C125.242 120.973 125.449 120.047 125.449 119.02C125.449 117.993 125.242 117.067 124.829 116.24C124.429 115.413 123.842 114.76 123.069 114.28C122.296 113.787 121.356 113.54 120.249 113.54C119.142 113.54 118.202 113.787 117.429 114.28C116.656 114.76 116.062 115.413 115.649 116.24C115.249 117.067 115.049 117.993 115.049 119.02C115.049 120.047 115.249 120.973 115.649 121.8C116.062 122.627 116.656 123.287 117.429 123.78C118.202 124.26 119.142 124.5 120.249 124.5ZM133.263 126.2C132.503 126.2 131.856 126.027 131.323 125.68C130.79 125.32 130.383 124.84 130.103 124.24C129.823 123.64 129.683 122.987 129.683 122.28V116.6C129.683 116.347 129.77 116.133 129.943 115.96C130.13 115.787 130.35 115.7 130.603 115.7C130.856 115.7 131.07 115.787 131.243 115.96C131.416 116.133 131.503 116.347 131.503 116.6V122.08C131.503 122.84 131.676 123.44 132.023 123.88C132.37 124.307 132.93 124.52 133.703 124.52C134.423 124.52 135.05 124.327 135.583 123.94C136.116 123.54 136.583 123.093 136.983 122.6V116.6C136.983 116.347 137.07 116.133 137.243 115.96C137.43 115.787 137.65 115.7 137.903 115.7C138.156 115.7 138.37 115.787 138.543 115.96C138.716 116.133 138.803 116.347 138.803 116.6V125.18C138.803 125.433 138.716 125.653 138.543 125.84C138.37 126.013 138.156 126.1 137.903 126.1C137.65 126.1 137.43 126.013 137.243 125.84C137.07 125.653 136.983 125.433 136.983 125.18V124.36C136.57 124.813 136.07 125.233 135.483 125.62C134.896 126.007 134.156 126.2 133.263 126.2ZM145.491 126.2C145.251 126.2 144.964 126.173 144.631 126.12C144.311 126.08 143.991 125.98 143.671 125.82C143.364 125.647 143.104 125.38 142.891 125.02C142.677 124.66 142.571 124.173 142.571 123.56V117.36H141.151C140.897 117.36 140.771 117.233 140.771 116.98C140.771 116.847 140.831 116.733 140.951 116.64L143.671 113.98C143.697 113.953 143.737 113.92 143.791 113.88C143.857 113.827 143.931 113.8 144.011 113.8C144.117 113.8 144.204 113.84 144.271 113.92C144.351 114 144.391 114.093 144.391 114.2V115.8H146.651C146.877 115.8 147.064 115.873 147.211 116.02C147.357 116.167 147.431 116.353 147.431 116.58C147.431 116.793 147.357 116.98 147.211 117.14C147.064 117.287 146.877 117.36 146.651 117.36H144.391V123.4C144.391 123.787 144.464 124.067 144.611 124.24C144.757 124.413 144.931 124.52 145.131 124.56C145.344 124.587 145.531 124.6 145.691 124.6C146.011 124.6 146.244 124.573 146.391 124.52C146.551 124.453 146.717 124.42 146.891 124.42C147.077 124.42 147.244 124.487 147.391 124.62C147.537 124.753 147.611 124.927 147.611 125.14C147.611 125.447 147.457 125.68 147.151 125.84C146.911 125.947 146.651 126.033 146.371 126.1C146.104 126.167 145.811 126.2 145.491 126.2Z" fill="black"/>
</g>
<defs>
<filter id="filter0_d_1156_1886" x="0.7" y="0.7" width="254.6" height="151.6" filterUnits="userSpaceOnUse" color-interpolation-filters="sRGB">
<feFlood flood-opacity="0" result="BackgroundImageFix"/>
<feColorMatrix in="SourceAlpha" type="matrix" values="0 0 0 0 0 0 0 0 0 0 0 0 0 0 0 0 0 0 127 0" result="hardAlpha"/>
<feOffset/>
<feGaussianBlur stdDeviation="5.15"/>
<feComposite in2="hardAlpha" operator="out"/>
<feColorMatrix type="matrix" values="0 0 0 0 0 0 0 0 0 0 0 0 0 0 0 0 0 0 0.25 0"/>
<feBlend mode="normal" in2="BackgroundImageFix" result="effect1_dropShadow_1156_1886"/>
<feBlend mode="normal" in="SourceGraphic" in2="effect1_dropShadow_1156_1886" result="shape"/>
</filter>
<clipPath id="clip0_1156_1886">
<rect width="24" height="24" fill="white" transform="translate(31 65)"/>
</clipPath>
</defs>
</svg>
