<svg width="39" height="39" viewBox="0 0 39 39" fill="none" xmlns="http://www.w3.org/2000/svg">
<g clip-path="url(#clip0_773_1915)">
<path d="M19.8 2.34448V37.1778M27.7167 8.67782H15.8417C14.372 8.67782 12.9624 9.26167 11.9232 10.3009C10.8839 11.3402 10.3 12.7497 10.3 14.2195C10.3 15.6892 10.8839 17.0988 11.9232 18.138C12.9624 19.1773 14.372 19.7612 15.8417 19.7612H23.7584C25.2281 19.7612 26.6377 20.345 27.6769 21.3843C28.7162 22.4235 29.3 23.8331 29.3 25.3028C29.3 26.7726 28.7162 28.1821 27.6769 29.2214C26.6377 30.2606 25.2281 30.8445 23.7584 30.8445H10.3" stroke="#F59643" stroke-width="4" stroke-linecap="round" stroke-linejoin="round"/>
</g>
<defs>
<clipPath id="clip0_773_1915">
<rect width="38" height="38" fill="white" transform="translate(0.800049 0.761108)"/>
</clipPath>
</defs>
</svg>
